<svg width="25" height="25" viewBox="0 0 25 25" fill="none" xmlns="http://www.w3.org/2000/svg">
<path fill-rule="evenodd" clip-rule="evenodd" d="M12.4999 1.77502C9.33811 1.77502 6.77494 4.33819 6.77494 7.50002C6.77494 10.6619 9.33811 13.225 12.4999 13.225C15.6618 13.225 18.2249 10.6619 18.2249 7.50002C18.2249 4.33819 15.6618 1.77502 12.4999 1.77502ZM7.72494 7.50002C7.72494 4.86286 9.86278 2.72502 12.4999 2.72502C15.1371 2.72502 17.2749 4.86286 17.2749 7.50002C17.2749 10.1372 15.1371 12.275 12.4999 12.275C9.86278 12.275 7.72494 10.1372 7.72494 7.50002ZM4.64165 22.6666C4.64165 19.7466 5.41114 17.7206 6.72917 16.4216C8.04861 15.1213 9.99331 14.475 12.4999 14.475C15.0064 14.475 16.9512 15.1213 18.2707 16.4217C19.5887 17.7206 20.3583 19.7466 20.3582 22.6666C20.3582 22.9289 20.5709 23.1416 20.8332 23.1416C21.0955 23.1416 21.3082 22.9289 21.3082 22.6666C21.3083 19.5867 20.4944 17.2794 18.9375 15.745C17.3819 14.212 15.16 13.525 12.4999 13.525C9.83975 13.525 7.61784 14.212 6.06234 15.745C4.50544 17.2794 3.69165 19.5867 3.69165 22.6666C3.69165 22.9289 3.90432 23.1416 4.16665 23.1416C4.42899 23.1416 4.64165 22.9289 4.64165 22.6666Z" fill="#808080" fill-opacity="0.55"/>
</svg>
